<svg xmlns="http://www.w3.org/2000/svg" viewBox="0 0 1024 1024"><defs><style>.a{fill:#fff;}</style></defs><title>Artboard 1</title><rect class="a" x="422.11" width="8.03" height="1024"/><rect class="a" x="438.17" width="8.03" height="64"/><rect class="a" x="577.8" width="8.03" height="64"/><rect class="a" x="438.17" y="128" width="8.03" height="64"/><rect class="a" x="577.8" y="128" width="8.03" height="64"/><rect class="a" x="438.17" y="256" width="8.03" height="64"/><rect class="a" x="577.8" y="256" width="8.03" height="64"/><rect class="a" x="438.17" y="384" width="8.03" height="64"/><rect class="a" x="577.8" y="384" width="8.03" height="64"/><rect class="a" x="438.17" y="512" width="8.03" height="64"/><rect class="a" x="577.8" y="512" width="8.03" height="64"/><rect class="a" x="438.17" y="640" width="8.03" height="64"/><rect class="a" x="577.8" y="640" width="8.03" height="64"/><rect class="a" x="438.17" y="768" width="8.03" height="64"/><rect class="a" x="577.8" y="768" width="8.03" height="64"/><rect class="a" x="438.17" y="896" width="8.03" height="64"/><rect class="a" x="577.8" y="896" width="8.03" height="64"/><rect class="a" x="593.86" width="8.03" height="1024"/></svg>