<svg id="Layer_1" data-name="Layer 1" xmlns="http://www.w3.org/2000/svg" width="128" height="128" viewBox="0 0 128 128"><title>Bike Lane</title><path d="M55.68835,81.3796c-.17409-.66858.73175-.91925,1.5135-1.25308,3.55136-1.51659,7.08607-3.07112,10.66731-4.52018,1.26626-.51235,1.51541-1.08309.92654-2.28629q-2.09671-4.284-3.96879-8.66766c-.66226-1.5433-1.12295-1.34-1.9621-.10858-2.305,3.38247-4.74641,6.68-7.03632,10.07148-.7446,1.1028-1.18645,1.15877-2.15793.21321-3.71449-3.61538-3.50954-3.45572-.8851-7.855A55.07476,55.07476,0,0,1,69.37983,49.75974c1.956-1.34222,1.87983-1.4478,2.87668.71284,3.80825,8.25423,7.59972,16.51563,11.44128,24.75562a3.45146,3.45146,0,0,1,.11062,3.05189q-7.68234,18.36381-15.24422,36.7735c-.66554,1.62993-1.30844,1.93287-2.76783.91533-1.52406-1.06262-4.1563-1.32509-4.5854-2.92981-.3817-1.42748.95023-3.294,1.58116-4.94745q4.4436-11.645,8.91218-23.28122c.19424-.50843.74664-1.10772.30153-1.56261-.49029-.501-1.09828.10025-1.60811.297-1.22158.47135-2.37861,1.10431-3.61513,1.52959a1.86015,1.86015,0,0,0-1.4381,2.45428c.38312,1.85333.5889,3.74064.98388,5.59123a1.55484,1.55484,0,0,1-1.04763,2.08528c-1.86918.786-3.68867,1.68227-5.51473,2.55953-.77271.37122-1.16045.27976-1.3147-.62382C57.58059,92.04044,56.66894,86.9464,55.68835,81.3796Z" fill="#fdfdfc"/><path d="M63.13152,0c4.11787,5.72031,8.12009,11.27083,12.10757,16.831a1.64161,1.64161,0,0,1,.03826,2.11825,1.84645,1.84645,0,0,1-2.01159.39083c-1.15255-.26153-2.28474-.6064-3.42288-.92474-2.30431-.64451-2.314-.64693-2.32334,1.57482-.01221,2.90458-.061,5.81058.01695,8.71324.036,1.34035-.4861,1.77533-1.841,1.70739a50.216,50.216,0,0,0-5.14164.00511c-1.36068.07152-1.86976-.37285-1.8337-1.70832.07838-2.90264.02963-5.80866.01779-8.71324-.0091-2.23194-.01908-2.23111-2.327-1.5743-1.01038.28754-2.0121.61091-3.03606.84443-.891.20322-1.88638.46777-2.50436-.48328-.5747-.88444-.1242-1.6904.42382-2.44638Q56.31193,9.41314,61.32442,2.488C61.88352,1.71612,62.44465.94557,63.13152,0Z" fill="#fdfdfc"/><path d="M103.56194,107.36292c-2.91493.01444-2.87255.0055-3.52455-2.8288a10.92281,10.92281,0,0,0-3.225-5.948,6.37464,6.37464,0,0,0-9.50156.79836,13.12732,13.12732,0,0,0-2.56058,6.66085c-.1099.944-.47746,1.35355-1.46993,1.31856-4.7562-.16771-5.01181,1.13737-4.24987-4.50163.47871-3.54294,1.3133-6.98868,3.7291-9.81384,5.23471-6.12175,15.31225-5.411,20.2084,1.38365,2.46106,3.41533,3.39494,7.32624,3.88933,11.37058.13852,1.1331-.291,1.66344-1.51869,1.56814C104.75,107.32509,104.15437,107.36292,103.56194,107.36292Z" fill="#fdfdfc"/><path d="M52.18789,107.3573c-2.88485.00738-2.89414.0091-3.42887-2.63968a10.59586,10.59586,0,0,0-3.55186-6.37921,6.3179,6.3179,0,0,0-9.06881.89614,11.56642,11.56642,0,0,0-2.54774,6.05882c-.17964,1.5079-.66574,2.191-2.43132,2.10213-4.27237-.21493-4.0688.73741-3.51882-3.89409a20.60222,20.60222,0,0,1,2.974-9.31314c4.70687-7.03551,15.46573-7.09,20.78333-.11431,2.47826,3.25105,3.44683,7.01933,4.04237,10.927.27387,1.79688-.27042,2.65349-2.26552,2.36228A6.81417,6.81417,0,0,0,52.18789,107.3573Z" fill="#fdfdfc"/><path d="M29.84658,110.05869c2.76208-.6967,3.74513.23735,3.92746,2.49a8.77339,8.77339,0,0,0,1.58853,3.84071c2.52717,3.95938,6.8558,4.45509,10.27345,1.13678a10.58287,10.58287,0,0,0,3.11736-6.00238,1.7163,1.7163,0,0,1,2.22953-1.67261,16.231,16.231,0,0,0,1.97414.01785c2.78008.00647,2.84562.0166,2.4165,2.57428-.77854,4.64025-2.50485,8.8752-6.10757,12.23139a11.937,11.937,0,0,1-18.12633-1.8703,23.07564,23.07564,0,0,1-3.72437-11.619C27.222,108.6657,29.44227,110.56966,29.84658,110.05869Z" fill="#fdfdfc"/><path d="M82.09322,109.86929c1.92473-.58538,2.67522.47464,2.96534,2.46079a9.51735,9.51735,0,0,0,2.56574,5.23807c2.47468,2.60313,5.52244,2.87095,8.42581.686a10.3146,10.3146,0,0,0,4.01449-6.75062c.21458-1.26663.72991-1.77043,2.0473-1.6518.84964.07652,1.7127.01284,2.56971.01865,2.30549.01564,2.4292.11922,2.07694,2.23793a22.73433,22.73433,0,0,1-4.978,11.38138,12.10094,12.10094,0,0,1-19.90163-1.53564,24.38706,24.38706,0,0,1-2.95066-8.77149C78.39289,109.91319,78.39607,109.86374,82.09322,109.86929Z" fill="#fdfdfc"/><path d="M63.04144,48.56537c-2.55081-.025-3.75295-1.1339-3.97792-3.7344-.09428-1.08981.254-2.34374-1.60907-2.41064-.61448-.02206-.3933-.66722-.30741-1.09078a6.67187,6.67187,0,0,1,5.8658-4.88233,6.75941,6.75941,0,0,1,6.14674,4.551c.12335.5128.415,1.37154-.38248,1.4177-1.90661.11035-1.4687,1.36565-1.53975,2.43085C67.06535,47.42511,65.742,48.59177,63.04144,48.56537Z" fill="#fdfdfc"/></svg>