<svg id="Layer_1" data-name="Layer 1" xmlns="http://www.w3.org/2000/svg" viewBox="0 0 1024 1024"><defs><style>.cls-1{fill:#fff;}.cls-2{fill:#ffde17;}.cls-3{fill:#231f20;}</style></defs><title>RoadMajorLines</title><rect class="cls-1" x="959.75" width="8.03" height="1024"/><rect class="cls-1" x="56.22" width="8.03" height="1024"/><rect class="cls-2" x="422.11" width="8.03" height="1024"/><rect class="cls-2" x="438.17" width="8.03" height="64"/><rect class="cls-2" x="577.8" width="8.03" height="64"/><rect class="cls-1" x="236.93" width="8.03" height="64"/><rect class="cls-1" x="779.04" y="64" width="8.03" height="64"/><rect class="cls-2" x="438.17" y="128" width="8.03" height="64"/><rect class="cls-2" x="577.8" y="128" width="8.03" height="64"/><rect class="cls-1" x="236.93" y="128" width="8.03" height="64"/><rect class="cls-1" x="779.04" y="192" width="8.03" height="64"/><rect class="cls-2" x="438.17" y="256" width="8.03" height="64"/><rect class="cls-2" x="577.8" y="256" width="8.03" height="64"/><rect class="cls-1" x="236.93" y="256" width="8.03" height="64"/><rect class="cls-1" x="779.04" y="320" width="8.03" height="64"/><rect class="cls-2" x="438.17" y="384" width="8.03" height="64"/><rect class="cls-2" x="577.8" y="384" width="8.03" height="64"/><rect class="cls-1" x="236.93" y="384" width="8.03" height="64"/><rect class="cls-1" x="779.04" y="448" width="8.03" height="64"/><rect class="cls-2" x="438.17" y="512" width="8.03" height="64"/><rect class="cls-2" x="577.8" y="512" width="8.03" height="64"/><rect class="cls-1" x="236.93" y="512" width="8.03" height="64"/><rect class="cls-1" x="779.04" y="576" width="8.03" height="64"/><rect class="cls-2" x="438.17" y="640" width="8.03" height="64"/><rect class="cls-2" x="577.8" y="640" width="8.03" height="64"/><rect class="cls-1" x="236.93" y="640" width="8.03" height="64"/><rect class="cls-1" x="779.04" y="704" width="8.03" height="64"/><rect class="cls-2" x="438.17" y="768" width="8.03" height="64"/><rect class="cls-2" x="577.8" y="768" width="8.03" height="64"/><rect class="cls-1" x="236.93" y="768" width="8.03" height="64"/><rect class="cls-1" x="779.04" y="832" width="8.03" height="64"/><rect class="cls-2" x="438.17" y="896" width="8.03" height="64"/><rect class="cls-2" x="577.8" y="896" width="8.03" height="64"/><rect class="cls-1" x="236.93" y="896" width="8.03" height="64"/><rect class="cls-1" x="779.04" y="960" width="8.03" height="64"/><rect class="cls-2" x="593.86" width="8.03" height="1024"/><rect class="cls-3" x="430.14" width="8.03" height="1024"/><rect class="cls-3" x="585.83" width="8.03" height="1024"/></svg>