<svg xmlns="http://www.w3.org/2000/svg" width="1024" height="1024" viewBox="0 0 1024 1024"><title>RoadLarge Taper</title><g id="Black_Taper" data-name="Black Taper"><rect x="430.13853" width="8.03137" height="1024" fill="#231f20"/><rect x="585.8301" y="960" width="8.03137" height="64" fill="#231f20"/><path d="M438.1699,68.0032C438.1699,320,593.86147,707.5637,593.86147,960H585.8301c0-251.9968-155.69157-638.90793-155.69157-894.90793" fill="#231f20"/></g><g id="Yellow_Taper" data-name="Yellow Taper"><path d="M438.16992,177.47113V232.515C477.9375,468.979,577.79871,757.8252,577.79871,960h8.03137C585.83008,742.66479,470.02789,424.981,438.16992,177.47113Z" fill="#fed318"/><rect x="422.10715" width="8.03137" height="1024" fill="#fed318"/><polygon points="438.17 0 446.201 0 446.201 64 438.17 68.003 438.17 0" fill="#fed318"/><polygon points="593.861 960 601.893 955.997 601.893 1024 593.861 1024 593.861 960" fill="#fed318"/><rect x="577.79873" y="960" width="8.03137" height="64" fill="#fed318"/><path d="M438.1699,68.0032C438.1699,320,593.86147,707.5637,593.86147,960l8.03138-4.0032C601.89285,704,446.20127,320,446.20127,64" fill="#fed318"/><rect x="438.1699" y="896" width="8.03137" height="64" fill="#fed318"/><rect x="438.1699" y="768" width="8.03137" height="64" fill="#fed318"/><polygon points="438.17 704 446.201 704 446.201 256 438.17 229.917 438.17 704" fill="#fed318"/></g><g id="White_Lines" data-name="White Lines"><rect x="959.74902" width="8.03137" height="1024" fill="#fff"/><rect x="593.86147" width="8.03137" height="32" fill="#fff"/><rect x="56.21961" width="8.03137" height="1024" fill="#fff"/><rect x="236.92549" width="8.03137" height="64" fill="#fff"/><rect x="779.04314" y="192" width="8.03137" height="64" fill="#fff"/><rect x="236.92549" y="256" width="8.03137" height="64" fill="#fff"/><rect x="779.04314" y="448" width="8.03137" height="64" fill="#fff"/><rect x="236.92549" y="512" width="8.03137" height="64" fill="#fff"/><rect x="779.04314" y="704" width="8.03137" height="64" fill="#fff"/><rect x="236.92549" y="768" width="8.03137" height="64" fill="#fff"/><rect x="779.04314" y="960" width="8.03137" height="64" fill="#fff"/></g></svg>