<svg xmlns="http://www.w3.org/2000/svg" width="1024" height="1024" viewBox="0 0 1024 1024">
  <title>RoadLarge Crosswalk</title>
  <g id="Black_Taper" data-name="Black Taper">
    <rect x="430.13853" y="256" width="8.03137" height="768" fill="#231f20"/>
  </g>
  <g id="Yellow_Taper" data-name="Yellow Taper">
    <rect x="422.10715" y="256" width="8.03137" height="768" fill="#fed318"/>
    <rect x="438.1699" y="256" width="8.03137" height="768" fill="#fed318"/>
  </g>
  <g id="White_Lines" data-name="White Lines">
    <rect x="959.74902" y="256" width="8.03137" height="768" fill="#fff"/>
    <rect x="504" y="-264" width="16" height="1024" transform="translate(760 -264) rotate(90)" fill="#fff"/>
    <rect x="504" y="-504" width="16" height="1024" transform="translate(520 -504) rotate(90)" fill="#fff"/>
    <rect x="593.86147" y="256" width="8.03137" height="768" fill="#fff"/>
    <rect x="56.21961" y="256" width="8.03137" height="768" fill="#fff"/>
    <rect x="779.04314" y="256" width="8.03137" height="192" fill="#fff"/>
    <rect x="236.92549" y="256" width="8.03137" height="64" fill="#fff"/>
    <rect x="779.04314" y="448" width="8.03137" height="64" fill="#fff"/>
    <rect x="236.92549" y="512" width="8.03137" height="64" fill="#fff"/>
    <rect x="779.04314" y="704" width="8.03137" height="64" fill="#fff"/>
    <rect x="236.92549" y="768" width="8.03137" height="64" fill="#fff"/>
    <rect x="779.04314" y="960" width="8.03137" height="64" fill="#fff"/>
    <rect x="16" y="16" width="32" height="224" fill="#fff"/>
    <rect x="80" y="16" width="32" height="224" fill="#fff"/>
    <rect x="144" y="16" width="32" height="224" fill="#fff"/>
    <rect x="208" y="16" width="32" height="224" fill="#fff"/>
    <rect x="272" y="16" width="32" height="224" fill="#fff"/>
    <rect x="336" y="16" width="32" height="224" fill="#fff"/>
    <rect x="400" y="16" width="32" height="224" fill="#fff"/>
    <rect x="464" y="16" width="32" height="224" fill="#fff"/>
    <rect x="528" y="16" width="32" height="224" fill="#fff"/>
    <rect x="592" y="16" width="32" height="224" fill="#fff"/>
    <rect x="656" y="16" width="32" height="224" fill="#fff"/>
    <rect x="720" y="16" width="32" height="224" fill="#fff"/>
    <rect x="784" y="16" width="32" height="224" fill="#fff"/>
    <rect x="848" y="16" width="32" height="224" fill="#fff"/>
    <rect x="912" y="16" width="32" height="224" fill="#fff"/>
    <rect x="976" y="16" width="32" height="224" fill="#fff"/>
  </g>
</svg>
