<svg xmlns="http://www.w3.org/2000/svg" width="1024" height="1024" viewBox="0 0 1024 1024"><title>RoadLarge Straight</title><g id="Black_Straight" data-name="Black Straight"><rect x="959.74902" width="8.03137" height="1024" fill="#fff"/><rect x="56.21961" width="8.03137" height="1024" fill="#fff"/><rect x="236.92549" width="8.03137" height="64" fill="#fff"/><rect x="779.04314" y="192" width="8.03137" height="64" fill="#fff"/><rect x="236.92549" y="256" width="8.03137" height="64" fill="#fff"/><rect x="779.04314" y="448" width="8.03137" height="64" fill="#fff"/><rect x="236.92549" y="512" width="8.03137" height="64" fill="#fff"/><rect x="779.04314" y="704" width="8.03137" height="64" fill="#fff"/><rect x="236.92549" y="768" width="8.03137" height="64" fill="#fff"/><rect x="779.04314" y="960" width="8.03137" height="64" fill="#fff"/><rect x="430.13853" width="8.03137" height="1024" fill="#231f20"/><rect x="585.8301" width="8.03137" height="1024" fill="#231f20"/></g><g id="Yellow_Straight" data-name="Yellow Straight"><rect x="422.10715" width="8.03137" height="1024" fill="#fed318"/><rect x="438.1699" width="8.03137" height="64" fill="#fed318"/><rect x="577.79873" y="128" width="8.03137" height="64" fill="#fed318"/><rect x="438.1699" y="256" width="8.03137" height="64" fill="#fed318"/><rect x="577.79873" y="384" width="8.03137" height="64" fill="#fed318"/><rect x="438.1699" y="512" width="8.03137" height="64" fill="#fed318"/><rect x="577.79873" y="640" width="8.03137" height="64" fill="#fed318"/><rect x="438.1699" y="768" width="8.03137" height="64" fill="#fed318"/><rect x="577.79873" y="896" width="8.03137" height="64" fill="#fed318"/><rect x="593.86147" width="8.03137" height="1024" fill="#fed318"/></g><g id="White_Lines" data-name="White Lines"><rect x="959.74902" width="8.03137" height="1024" fill="#fff"/><rect x="56.21961" width="8.03137" height="1024" fill="#fff"/><rect x="236.92549" width="8.03137" height="64" fill="#fff"/><rect x="779.04314" y="192" width="8.03137" height="64" fill="#fff"/><rect x="236.92549" y="256" width="8.03137" height="64" fill="#fff"/><rect x="779.04314" y="448" width="8.03137" height="64" fill="#fff"/><rect x="236.92549" y="512" width="8.03137" height="64" fill="#fff"/><rect x="779.04314" y="704" width="8.03137" height="64" fill="#fff"/><rect x="236.92549" y="768" width="8.03137" height="64" fill="#fff"/><rect x="779.04314" y="960" width="8.03137" height="64" fill="#fff"/></g></svg>