<svg xmlns="http://www.w3.org/2000/svg" width="1024" height="1024" viewBox="0 0 1024 1024"><title>RoadLarge</title><g id="Black_Straight" data-name="Black Straight"><rect x="959.75" width="8.03" height="1024" fill="#fff"/><rect x="56.22" width="8.03" height="1024" fill="#fff"/><rect x="236.93" width="8.03" height="64" fill="#fff"/><rect x="779.04" y="192" width="8.03" height="64" fill="#fff"/><rect x="236.93" y="256" width="8.03" height="64" fill="#fff"/><rect x="779.04" y="448" width="8.03" height="64" fill="#fff"/><rect x="236.93" y="512" width="8.03" height="64" fill="#fff"/><rect x="779.04" y="704" width="8.03" height="64" fill="#fff"/><rect x="236.93" y="768" width="8.03" height="64" fill="#fff"/><rect x="779.04" y="960" width="8.03" height="64" fill="#fff"/><rect x="430.14" width="8.03" height="1024" fill="#231f20"/><rect x="585.83" width="8.03" height="1024" fill="#231f20"/></g><g id="Yellow_Straight" data-name="Yellow Straight"><rect x="422.11" width="8.03" height="1024" fill="#fed318"/><rect x="438.17" width="8.03" height="64" fill="#fed318"/><rect x="577.8" y="128" width="8.03" height="64" fill="#fed318"/><rect x="438.17" y="256" width="8.03" height="64" fill="#fed318"/><rect x="577.8" y="384" width="8.03" height="64" fill="#fed318"/><rect x="438.17" y="512" width="8.03" height="64" fill="#fed318"/><rect x="577.8" y="640" width="8.03" height="64" fill="#fed318"/><rect x="438.17" y="768" width="8.03" height="64" fill="#fed318"/><rect x="577.8" y="896" width="8.03" height="64" fill="#fed318"/><rect x="593.86" width="8.03" height="1024" fill="#fed318"/></g></svg>