<svg id="Base_color" data-name="Base color" xmlns="http://www.w3.org/2000/svg" viewBox="0 0 2048 2048"><defs><style>.cls-1{fill:#ad2333;}.cls-2{fill:#f7e157;}</style></defs><title>SidewalksLayout</title><rect class="cls-1" x="57.75" y="-0.39" width="22" height="256"/><rect class="cls-2" x="57.75" y="255.61" width="22" height="256"/><rect class="cls-1" x="57.75" y="511.61" width="22" height="256"/><rect class="cls-2" x="57.75" y="767.61" width="22" height="256"/><rect class="cls-1" x="57.75" y="1023.61" width="22" height="256"/><rect class="cls-2" x="57.75" y="1279.61" width="22" height="256"/><rect class="cls-1" x="57.75" y="1535.61" width="22" height="256"/><rect class="cls-2" x="57.75" y="1791.61" width="22" height="256"/><rect class="cls-1" x="79.75" y="-0.39" width="22" height="256"/><rect class="cls-1" x="569.75" y="-0.39" width="22" height="2048"/><rect class="cls-1" x="591.75" y="-0.39" width="22" height="2048"/><rect class="cls-2" x="79.75" y="255.61" width="22" height="256"/><rect class="cls-1" x="79.75" y="511.61" width="22" height="256"/><rect class="cls-2" x="79.75" y="767.61" width="22" height="256"/><rect class="cls-1" x="79.75" y="1023.61" width="22" height="256"/><rect class="cls-2" x="79.75" y="1279.61" width="22" height="256"/><rect class="cls-1" x="79.75" y="1535.61" width="22" height="256"/><rect class="cls-2" x="79.75" y="1791.61" width="22" height="256"/></svg>