<svg id="Layer_1" data-name="Layer 1" xmlns="http://www.w3.org/2000/svg" width="128" height="128" viewBox="0 0 128 128">
  <title>TurnArrow</title>
  <g>
    <polygon points="44.806 96.182 44.806 51.376 44.806 6.57 22.403 28.973 0 51.376 22.403 73.779 44.806 96.182" fill="#fff"/>
    <path d="M44.80653,38.2352V64.51668a56.58076,56.58076,0,0,1,23.53395,5.09638,57.307,57.307,0,0,1,24.83816,21.858,56.50654,56.50654,0,0,1,8.12969,23.10665,57.24594,57.24594,0,0,1,.41019,6.85224H128a82.746,82.746,0,0,0-6.3744-31.93924A83.1474,83.1474,0,0,0,44.80653,38.2352Z" fill="#fff"/>
  </g>
</svg>
